# xmcd CD database file
#
# Track frame offsets:
#	150
#	13330
#	31380
#	43675
#	56630
#	73232
#	87072
#	104426
#	123600
#	136209
#
# Disc length: 1977 seconds
#
# Revision: 0
# Processed by: cddbd v1.5.1PL0 Copyright (c) Steve Scherf et al.
# Submitted via: CDex 1.50
#
DISCID=8e07b70a
DTITLE=Norma Jean - No Boundaries
DYEAR=2005
DGENRE=Country
TTITLE0=Old Love Letters
TTITLE1=Sad And Lonely People
TTITLE2=I Can't Help It
TTITLE3=When the Currawong Come Down From The Mountain
TTITLE4=San Antone Rose
TTITLE5=Philadelphia Lawyer
TTITLE6=Blue Misty Mountain
TTITLE7=Camooweal
TTITLE8=Lover's Hill
TTITLE9=I'm The One That Hurt You
EXTD=YEAR: 2005
EXTT0=
EXTT1=
EXTT2=
EXTT3=
EXTT4=
EXTT5=
EXTT6=
EXTT7=
EXTT8=
EXTT9=
PLAYORDER=
